name C:\Users\u0101727\Documents\MyRepositories\upper-imu-dc\Results\main_tracking\Case_47\FLX03_angularVelocities_groundFrame.mot
datacolumns 4
datarows 70
range 5.38000000 6.07000000
endheader 
time	radius_imu_x	radius_imu_y	radius_imu_z	
          5.38000000	          1.05470426	         -0.31801351	         -1.03722513	
          5.39000000	          1.08196195	         -0.33159151	         -1.03349348	
          5.40000000	          1.10823256	         -0.34428082	         -1.02931527	
          5.41000000	          1.13301663	         -0.35587523	         -1.02498812	
          5.42000000	          1.15574754	         -0.36614027	         -1.02081435	
          5.43000000	          1.17578937	         -0.37480693	         -1.01709073	
          5.44000000	          1.19244269	         -0.38156865	         -1.01410109	
          5.45000000	          1.20496423	         -0.38608404	         -1.01211091	
          5.46000000	          1.21260470	         -0.38798671	         -1.01136247	
          5.47000000	          1.21466847	         -0.38690324	         -1.01206753	
          5.48000000	          1.21059520	         -0.38247882	         -1.01439449	
          5.49000000	          1.20005772	         -0.37440921	         -1.01844843	
          5.50000000	          1.18306129	         -0.36247602	         -1.02424576	
          5.51000000	          1.16001869	         -0.34657981	         -1.03169066	
          5.52000000	          1.13176769	         -0.32676319	         -1.04056556	
          5.53000000	          1.09950757	         -0.30321620	         -1.05054630	
          5.54000000	          1.06466554	         -0.27626182	         -1.06124199	
          5.55000000	          1.02873499	         -0.24632712	         -1.07224742	
          5.56000000	          0.99313027	         -0.21390901	         -1.08319249	
          5.57000000	          0.95908478	         -0.17954136	         -1.09377615	
          5.58000000	          0.92759834	         -0.14376552	         -1.10377876	
          5.59000000	          0.89942319	         -0.10710371	         -1.11305359	
          5.60000000	          0.87507105	         -0.07003452	         -1.12150462	
          5.61000000	          0.85482769	         -0.03297318	         -1.12906011	
          5.62000000	          0.83877059	          0.00373896	         -1.13565166	
          5.63000000	          0.82679002	          0.03983269	         -1.14120529	
          5.64000000	          0.81861311	          0.07509867	         -1.14564669	
          5.65000000	          0.81382892	          0.10937110	         -1.14891751	
          5.66000000	          0.81191477	          0.14251420	         -1.15099547	
          5.67000000	          0.81226726	          0.17441547	         -1.15190978	
          5.68000000	          0.81424036	          0.20498625	         -1.15174538	
          5.69000000	          0.81718790	          0.23416795	         -1.15063469	
          5.70000000	          0.82050397	          0.26194070	         -1.14873944	
          5.71000000	          0.82365691	          0.28832981	         -1.14622691	
          5.72000000	          0.82621451	          0.31340619	         -1.14324591	
          5.73000000	          0.82786227	          0.33727804	         -1.13990655	
          5.74000000	          0.82841638	          0.36007417	         -1.13626658	
          5.75000000	          0.82783104	          0.38192271	         -1.13232675	
          5.76000000	          0.82619832	          0.40293041	         -1.12803529	
          5.77000000	          0.82373783	          0.42316805	         -1.12329957	
          5.78000000	          0.82077515	          0.44266507	         -1.11800118	
          5.79000000	          0.81771085	          0.46141264	         -1.11201031	
          5.80000000	          0.81498483	          0.47937062	         -1.10519654	
          5.81000000	          0.81303987	          0.49647315	         -1.09743532	
          5.82000000	          0.81228688	          0.51263028	         -1.08861164	
          5.83000000	          0.81307288	          0.52772647	         -1.07862283	
          5.84000000	          0.81565427	          0.54161897	         -1.06738148	
          5.85000000	          0.82017960	          0.55413838	         -1.05481827	
          5.86000000	          0.82668570	          0.56509291	         -1.04088452	
          5.87000000	          0.83510704	          0.57427700	         -1.02555463	
          5.88000000	          0.84529359	          0.58148387	         -1.00882813	
          5.89000000	          0.85702976	          0.58652058	         -0.99073059	
          5.90000000	          0.87004807	          0.58922339	         -0.97131280	
          5.91000000	          0.88403551	          0.58947200	         -0.95064815	
          5.92000000	          0.89863522	          0.58720223	         -0.92882911	
          5.93000000	          0.91344798	          0.58241783	         -0.90596435	
          5.94000000	          0.92803734	          0.57520214	         -0.88217808	
          5.95000000	          0.94193926	          0.56572981	         -0.85761241	
          5.96000000	          0.95467565	          0.55427740	         -0.83243297	
          5.97000000	          0.96577118	          0.54123024	         -0.80683745	
          5.98000000	          0.97477122	          0.52708403	         -0.78106713	
          5.99000000	          0.98125934	          0.51244059	         -0.75542040	
          6.00000000	          0.98487252	          0.49799856	         -0.73026648	
          6.01000000	          0.98531237	          0.48454038	         -0.70605579	
          6.02000000	          0.98235067	          0.47291396	         -0.68332306	
          6.03000000	          0.97582632	          0.46401477	         -0.66267677	
          6.04000000	          0.96563319	          0.45876181	         -0.64477413	
          6.05000000	          0.95169722	          0.45809159	         -0.63027763	
          6.06000000	          0.93395155	          0.46295454	         -0.61980217	
          6.07000000	          0.91232025	          0.47430731	         -0.61387197	
